<?xml version="1.0" encoding="UTF-8" standalone="no"?>
<svg width="21px" height="15px" viewBox="0 0 21 15" version="1.1" xmlns="http://www.w3.org/2000/svg" xmlns:xlink="http://www.w3.org/1999/xlink" xmlns:sketch="http://www.bohemiancoding.com/sketch/ns">
    <!-- Generator: Sketch 3.4.2 (15855) - http://www.bohemiancoding.com/sketch -->
    <title>AU</title>
    <desc>Created with Sketch.</desc>
    <defs>
        <filter x="-50%" y="-50%" width="200%" height="200%" filterUnits="objectBoundingBox" id="filter-1">
            <feMorphology radius="1" in="SourceAlpha" operator="dilate" result="shadowSpreadInner1"></feMorphology>
            <feOffset dx="0" dy="0" in="shadowSpreadInner1" result="shadowOffsetInner1"></feOffset>
            <feGaussianBlur stdDeviation="0" in="shadowOffsetInner1" result="shadowBlurInner1"></feGaussianBlur>
            <feComposite in="shadowBlurInner1" in2="SourceAlpha" operator="arithmetic" k2="-1" k3="1" result="shadowInnerInner1"></feComposite>
            <feColorMatrix values="0 0 0 0 0   0 0 0 0 0   0 0 0 0 0  0 0 0 0.0851619112 0" in="shadowInnerInner1" type="matrix" result="shadowMatrixInner1"></feColorMatrix>
            <feMerge>
                <feMergeNode in="SourceGraphic"></feMergeNode>
                <feMergeNode in="shadowMatrixInner1"></feMergeNode>
            </feMerge>
        </filter>
        <rect id="path-2" x="0" y="0" width="21" height="15" rx="2"></rect>
        <rect id="path-4" x="0.5" y="0.5" width="20" height="14" rx="1"></rect>
    </defs>
    <g id=":)" stroke="none" stroke-width="1" fill="none" fill-rule="evenodd" sketch:type="MSPage">
        <g id="Flags-by-@lucchaissac" sketch:type="MSArtboardGroup" transform="translate(-236.000000, -30.000000)">
            <g id="AU" sketch:type="MSLayerGroup" transform="translate(236.000000, 30.000000)">
                <mask id="mask-3" sketch:name="background" fill="white">
                    <use xlink:href="#path-2"></use>
                </mask>
                <use id="background" fill="#1C36AD" filter="url(#filter-1)" sketch:type="MSShapeGroup" xlink:href="#path-2"></use>
                <path d="M5,11 L5,10 L6,10 L6,11 L7,11 L7,12 L6,12 L6,13 L5,13 L5,12 L4,12 L4,11 L5,11 L5,11 Z" id="cross" fill="#BDC4E7" sketch:type="MSShapeGroup" mask="url(#mask-3)"></path>
                <path d="M14,3 L14,4 L15,4 L15,3 L14,3 L14,3 Z M17,4 L17,5 L18,5 L18,4 L17,4 L17,4 Z M13,6 L13,7 L14,7 L14,6 L13,6 L13,6 Z M16,7 L16,8 L17,8 L17,7 L16,7 L16,7 Z M15,10 L15,11 L16,11 L16,10 L15,10 L15,10 Z" id="circles" fill="#BDC4E7" sketch:type="MSShapeGroup" mask="url(#mask-3)"></path>
                <rect id="top-left" fill="#FFFFFF" sketch:type="MSShapeGroup" mask="url(#mask-3)" x="1" y="1" width="9" height="7" rx="1"></rect>
                <path d="M5,5 L2,5 L2,4 L5,4 L5,2 L6,2 L6,4 L9,4 L9,5 L6,5 L6,7 L5,7 L5,5 L5,5 Z M7.5,6 L7.5,7 L9,7 L9,6 L7.5,6 L7.5,6 Z M7.5,2 L7.5,3 L9,3 L9,2 L7.5,2 L7.5,2 Z M2,6 L2,7 L3.5,7 L3.5,6 L2,6 L2,6 Z M2,2 L2,3 L3.5,3 L3.5,2 L2,2 L2,2 Z" id="cross" fill="#D72342" sketch:type="MSShapeGroup" mask="url(#mask-3)"></path>
                <mask id="mask-5" sketch:name="overlay" fill="white">
                    <use xlink:href="#path-4"></use>
                </mask>
                <use id="overlay" stroke-opacity="0.156646286" stroke="#2F343A" sketch:type="MSShapeGroup" xlink:href="#path-4"></use>
            </g>
        </g>
    </g>
</svg>