<?xml version="1.0" encoding="UTF-8" standalone="no"?>
<svg width="21px" height="15px" viewBox="0 0 21 15" version="1.1" xmlns="http://www.w3.org/2000/svg" xmlns:xlink="http://www.w3.org/1999/xlink" xmlns:sketch="http://www.bohemiancoding.com/sketch/ns">
    <!-- Generator: Sketch 3.4.2 (15855) - http://www.bohemiancoding.com/sketch -->
    <title>CD</title>
    <desc>Created with Sketch.</desc>
    <defs>
        <rect id="path-1" x="0" y="0" width="21" height="15" rx="2"></rect>
        <rect id="path-3" x="0.5" y="0.5" width="20" height="14" rx="1"></rect>
    </defs>
    <g id=":)" stroke="none" stroke-width="1" fill="none" fill-rule="evenodd" sketch:type="MSPage">
        <g id="Flags-by-@lucchaissac" sketch:type="MSArtboardGroup" transform="translate(-143.000000, -55.000000)">
            <g id="CD" sketch:type="MSLayerGroup" transform="translate(143.000000, 55.000000)">
                <mask id="mask-2" sketch:name="background" fill="white">
                    <use xlink:href="#path-1"></use>
                </mask>
                <use id="background" fill="#2B8EFB" sketch:type="MSShapeGroup" xlink:href="#path-1"></use>
                <polygon id="band" fill="#FFEA00" sketch:type="MSShapeGroup" mask="url(#mask-2)" points="21 0 21.0000002 5 4.99999994 15 1.762441e-07 15 1.762441e-07 10 16.0000002 0 "></polygon>
                <polygon id="band" fill="#CD2031" sketch:type="MSShapeGroup" mask="url(#mask-2)" points="21.0000002 0 21.0000002 3 1.99999994 15 1.762441e-07 15 1.762441e-07 12 19.0000002 0 "></polygon>
                <path d="M3,2 L3,3 L4,3 L4,2 L3,2 L3,2 Z M3,4 L3,5 L4,5 L4,4 L3,4 L3,4 Z M4,3 L4,4 L5,4 L5,3 L4,3 L4,3 Z M2,3 L2,4 L3,4 L3,3 L2,3 L2,3 Z" id="star" fill="#B5CE7D" sketch:type="MSShapeGroup" mask="url(#mask-2)"></path>
                <rect id="star" fill="#FFEA00" sketch:type="MSShapeGroup" mask="url(#mask-2)" x="3" y="3" width="1" height="1"></rect>
                <mask id="mask-4" sketch:name="overlay" fill="white">
                    <use xlink:href="#path-3"></use>
                </mask>
                <use id="overlay" stroke-opacity="0.156646286" stroke="#2F343A" sketch:type="MSShapeGroup" xlink:href="#path-3"></use>
            </g>
        </g>
    </g>
</svg>