<?xml version="1.0" encoding="UTF-8" standalone="no"?>
<svg width="21px" height="15px" viewBox="0 0 21 15" version="1.1" xmlns="http://www.w3.org/2000/svg" xmlns:xlink="http://www.w3.org/1999/xlink" xmlns:sketch="http://www.bohemiancoding.com/sketch/ns">
    <!-- Generator: Sketch 3.4.2 (15855) - http://www.bohemiancoding.com/sketch -->
    <title>ES</title>
    <desc>Created with Sketch.</desc>
    <defs>
        <filter x="-50%" y="-50%" width="200%" height="200%" filterUnits="objectBoundingBox" id="filter-1">
            <feMorphology radius="1" in="SourceAlpha" operator="dilate" result="shadowSpreadInner1"></feMorphology>
            <feOffset dx="0" dy="0" in="shadowSpreadInner1" result="shadowOffsetInner1"></feOffset>
            <feGaussianBlur stdDeviation="0" in="shadowOffsetInner1" result="shadowBlurInner1"></feGaussianBlur>
            <feComposite in="shadowBlurInner1" in2="SourceAlpha" operator="arithmetic" k2="-1" k3="1" result="shadowInnerInner1"></feComposite>
            <feColorMatrix values="0 0 0 0 0   0 0 0 0 0   0 0 0 0 0  0 0 0 0.0851619112 0" in="shadowInnerInner1" type="matrix" result="shadowMatrixInner1"></feColorMatrix>
            <feMerge>
                <feMergeNode in="SourceGraphic"></feMergeNode>
                <feMergeNode in="shadowMatrixInner1"></feMergeNode>
            </feMerge>
        </filter>
        <rect id="path-2" x="0" y="0" width="21" height="15" rx="2"></rect>
        <rect id="path-4" x="0.5" y="0.5" width="20" height="14" rx="1"></rect>
    </defs>
    <g id=":)" stroke="none" stroke-width="1" fill="none" fill-rule="evenodd" sketch:type="MSPage">
        <g id="Flags-by-@lucchaissac" sketch:type="MSArtboardGroup" transform="translate(-267.000000, -80.000000)">
            <g id="ES" sketch:type="MSLayerGroup" transform="translate(267.000000, 80.000000)">
                <mask id="mask-3" sketch:name="background" fill="white">
                    <use xlink:href="#path-2"></use>
                </mask>
                <use id="background" fill="#FFD128" filter="url(#filter-1)" sketch:type="MSShapeGroup" xlink:href="#path-2"></use>
                <rect id="bottom" fill="#CF3F4F" sketch:type="MSShapeGroup" mask="url(#mask-3)" x="0" y="11" width="21" height="4"></rect>
                <rect id="top" fill="#CF3F4F" sketch:type="MSShapeGroup" mask="url(#mask-3)" x="0" y="0" width="21" height="4"></rect>
                <path d="M3.99980749,5 C3.44762906,5 3,5.44371665 3,5.99980749 L3,9.00019251 C3,9.55237094 3.44371665,10 3.99980749,10 L7.00019251,10 C7.55237094,10 8,9.55628335 8,9.00019251 L8,5.99980749 C8,5.44762906 7.55628335,5 7.00019251,5 L3.99980749,5 Z M4,6 L4,9 L7,9 L7,6 L4,6 Z M5,6 L5,9 L6,9 L6,6 L5,6 Z" id="symbol" fill="#CF3F4F" sketch:type="MSShapeGroup" mask="url(#mask-3)"></path>
                <path d="M6,7 L6,8 L7,8 L7,7 L6,7 Z M4,6 L4,7 L5,7 L5,6 L4,6 Z" id="circles" fill="#DC6943" sketch:type="MSShapeGroup" mask="url(#mask-3)"></path>
                <mask id="mask-5" sketch:name="overlay" fill="white">
                    <use xlink:href="#path-4"></use>
                </mask>
                <use id="overlay" stroke-opacity="0.156646286" stroke="#2F343A" sketch:type="MSShapeGroup" xlink:href="#path-4"></use>
            </g>
        </g>
    </g>
</svg>