<?xml version="1.0" encoding="UTF-8" standalone="no"?>
<svg width="21px" height="15px" viewBox="0 0 21 15" version="1.1" xmlns="http://www.w3.org/2000/svg" xmlns:xlink="http://www.w3.org/1999/xlink" xmlns:sketch="http://www.bohemiancoding.com/sketch/ns">
    <!-- Generator: Sketch 3.4.2 (15855) - http://www.bohemiancoding.com/sketch -->
    <title>GB</title>
    <desc>Created with Sketch.</desc>
    <defs>
        <rect id="path-1" x="0" y="0" width="21" height="15" rx="2"></rect>
        <rect id="path-3" x="0.5" y="0.5" width="20" height="14" rx="1"></rect>
    </defs>
    <g id=":)" stroke="none" stroke-width="1" fill="none" fill-rule="evenodd" sketch:type="MSPage">
        <g id="Flags-by-@lucchaissac" sketch:type="MSArtboardGroup" transform="translate(-81.000000, -105.000000)">
            <g id="GB" sketch:type="MSLayerGroup" transform="translate(81.000000, 105.000000)">
                <mask id="mask-2" sketch:name="background" fill="white">
                    <use xlink:href="#path-1"></use>
                </mask>
                <use id="background" fill="#22438B" sketch:type="MSShapeGroup" xlink:href="#path-1"></use>
                <path d="M2.99999997,0.999999962 L0.9736328,1.02636718 L1.00000002,3 L17.9817609,14.0280845 L20.0187781,13.9910681 L19.9817619,12.0280851 L2.99999997,0.999999962 L2.99999997,0.999999962 Z" id="band" fill="#FFFFFF" sketch:type="MSShapeGroup" mask="url(#mask-2)"></path>
                <path d="M2.00000002,1.00000002 L0.999999967,1.99999994 L18.9999994,13.9999996 L20.0000006,13.0000004 L2.00000002,1.00000002 L2.00000002,1.00000002 Z" id="band" fill="#C7152A" sketch:type="MSShapeGroup" mask="url(#mask-2)"></path>
                <path d="M17.9999999,1.00000001 L20,0.999999992 L20.0000001,2.99999997 C20.0000001,2.99999997 8.25066254,10.3962123 3.01823819,14.028085 C2.95462366,14.0722405 1.02030163,14.0312631 1.02030163,14.0312631 L0.864800044,12.1277289 L17.9999999,1.00000001 L17.9999999,1.00000001 Z" id="band" fill="#FFFFFF" sketch:type="MSShapeGroup" mask="url(#mask-2)"></path>
                <path d="M19.0428543,0.972170082 L20,1.99999999 L1.9999997,14.0000002 L1.00000001,13 L19.0428543,0.972170082 L19.0428543,0.972170082 Z" id="band" fill="#C7152A" sketch:type="MSShapeGroup" mask="url(#mask-2)"></path>
                <path d="M8,1 L13,1 L13,5 L20,5 L20,10 L13,10 L13,14 L8,14 L8,10 L1,10 L1,5 L8,5 L8,1 Z" id="cross" fill="#FFFFFF" sketch:type="MSShapeGroup" mask="url(#mask-2)"></path>
                <path d="M9,1 L12,1 L12,6 L20,6 L20,9 L12,9 L12,14 L9,14 L9,9 L1,9 L1,6 L9,6 L9,1 Z" id="cross" fill="#C7152A" sketch:type="MSShapeGroup" mask="url(#mask-2)"></path>
                <mask id="mask-4" sketch:name="overlay" fill="white">
                    <use xlink:href="#path-3"></use>
                </mask>
                <use id="overlay" stroke-opacity="0.156646286" stroke="#2F343A" sketch:type="MSShapeGroup" xlink:href="#path-3"></use>
            </g>
        </g>
    </g>
</svg>