<?xml version="1.0" encoding="UTF-8" standalone="no"?>
<svg width="21px" height="15px" viewBox="0 0 21 15" version="1.1" xmlns="http://www.w3.org/2000/svg" xmlns:xlink="http://www.w3.org/1999/xlink" xmlns:sketch="http://www.bohemiancoding.com/sketch/ns">
    <!-- Generator: Sketch 3.4.2 (15855) - http://www.bohemiancoding.com/sketch -->
    <title>HT</title>
    <desc>Created with Sketch.</desc>
    <defs>
        <filter x="-50%" y="-50%" width="200%" height="200%" filterUnits="objectBoundingBox" id="filter-1">
            <feMorphology radius="1" in="SourceAlpha" operator="dilate" result="shadowSpreadInner1"></feMorphology>
            <feOffset dx="0" dy="0" in="shadowSpreadInner1" result="shadowOffsetInner1"></feOffset>
            <feGaussianBlur stdDeviation="0" in="shadowOffsetInner1" result="shadowBlurInner1"></feGaussianBlur>
            <feComposite in="shadowBlurInner1" in2="SourceAlpha" operator="arithmetic" k2="-1" k3="1" result="shadowInnerInner1"></feComposite>
            <feColorMatrix values="0 0 0 0 0   0 0 0 0 0   0 0 0 0 0  0 0 0 0.0851619112 0" in="shadowInnerInner1" type="matrix" result="shadowMatrixInner1"></feColorMatrix>
            <feMerge>
                <feMergeNode in="SourceGraphic"></feMergeNode>
                <feMergeNode in="shadowMatrixInner1"></feMergeNode>
            </feMerge>
        </filter>
        <rect id="path-2" x="0" y="0" width="21" height="15" rx="2"></rect>
        <rect id="path-4" x="0.5" y="0.5" width="20" height="14" rx="1"></rect>
    </defs>
    <g id=":)" stroke="none" stroke-width="1" fill="none" fill-rule="evenodd" sketch:type="MSPage">
        <g id="Flags-by-@lucchaissac" sketch:type="MSArtboardGroup" transform="translate(-205.000000, -105.000000)">
            <g id="HT" sketch:type="MSLayerGroup" transform="translate(205.000000, 105.000000)">
                <mask id="mask-3" sketch:name="background" fill="white">
                    <use xlink:href="#path-2"></use>
                </mask>
                <use id="background" fill="#FFFFFF" filter="url(#filter-1)" sketch:type="MSShapeGroup" xlink:href="#path-2"></use>
                <rect id="bottom" fill="#D53450" sketch:type="MSShapeGroup" mask="url(#mask-3)" x="0" y="8" width="21" height="7"></rect>
                <rect id="top" fill="#1636A2" sketch:type="MSShapeGroup" mask="url(#mask-3)" x="0" y="0" width="21" height="8"></rect>
                <mask id="mask-5" sketch:name="overlay" fill="white">
                    <use xlink:href="#path-4"></use>
                </mask>
                <use id="overlay" stroke-opacity="0.156646286" stroke="#2F343A" sketch:type="MSShapeGroup" xlink:href="#path-4"></use>
                <rect id="symbol" fill="#FFFFFF" sketch:type="MSShapeGroup" mask="url(#mask-5)" x="6" y="5" width="9" height="5"></rect>
                <path d="M11,7.33333333 L15,10 L6,10 L10,7.33333333 L9,6 L12,6 L11,7.33333333 L11,7.33333333 Z" id="symbol" fill="#5D9B69" sketch:type="MSShapeGroup" mask="url(#mask-5)"></path>
                <path d="M12,7 L12,8 L13,8 L13,7 L12,7 L12,7 Z M13,6 L13,7 L14,7 L14,6 L13,6 L13,6 Z M7,7 L7,6 L8,6 L8,7 L7,7 L7,7 Z M8,8 L8,7 L9,7 L9,8 L8,8 L8,8 Z" id="circles" fill="#C19F4A" sketch:type="MSShapeGroup" mask="url(#mask-5)"></path>
            </g>
        </g>
    </g>
</svg>