<?xml version="1.0" encoding="UTF-8" standalone="no"?>
<svg width="21px" height="15px" viewBox="0 0 21 15" version="1.1" xmlns="http://www.w3.org/2000/svg" xmlns:xlink="http://www.w3.org/1999/xlink" xmlns:sketch="http://www.bohemiancoding.com/sketch/ns">
    <!-- Generator: Sketch 3.4.2 (15855) - http://www.bohemiancoding.com/sketch -->
    <title>IL</title>
    <desc>Created with Sketch.</desc>
    <defs>
        <filter x="-50%" y="-50%" width="200%" height="200%" filterUnits="objectBoundingBox" id="filter-1">
            <feMorphology radius="1" in="SourceAlpha" operator="dilate" result="shadowSpreadInner1"></feMorphology>
            <feOffset dx="0" dy="0" in="shadowSpreadInner1" result="shadowOffsetInner1"></feOffset>
            <feGaussianBlur stdDeviation="0" in="shadowOffsetInner1" result="shadowBlurInner1"></feGaussianBlur>
            <feComposite in="shadowBlurInner1" in2="SourceAlpha" operator="arithmetic" k2="-1" k3="1" result="shadowInnerInner1"></feComposite>
            <feColorMatrix values="0 0 0 0 0   0 0 0 0 0   0 0 0 0 0  0 0 0 0.0851619112 0" in="shadowInnerInner1" type="matrix" result="shadowMatrixInner1"></feColorMatrix>
            <feMerge>
                <feMergeNode in="SourceGraphic"></feMergeNode>
                <feMergeNode in="shadowMatrixInner1"></feMergeNode>
            </feMerge>
        </filter>
        <rect id="path-2" x="0" y="0" width="21" height="15" rx="2"></rect>
        <rect id="path-4" x="0.5" y="0.5" width="20" height="14" rx="1"></rect>
    </defs>
    <g id=":)" stroke="none" stroke-width="1" fill="none" fill-rule="evenodd" sketch:type="MSPage">
        <g id="Flags-by-@lucchaissac" sketch:type="MSArtboardGroup" transform="translate(-329.000000, -105.000000)">
            <g id="IL" sketch:type="MSLayerGroup" transform="translate(329.000000, 105.000000)">
                <mask id="mask-3" sketch:name="background" fill="white">
                    <use xlink:href="#path-2"></use>
                </mask>
                <use id="background" fill="#FFFFFF" filter="url(#filter-1)" sketch:type="MSShapeGroup" xlink:href="#path-2"></use>
                <rect id="bottom" fill="#5882D4" sketch:type="MSShapeGroup" mask="url(#mask-3)" x="0" y="12" width="21" height="3"></rect>
                <rect id="top" fill="#5882D4" sketch:type="MSShapeGroup" mask="url(#mask-3)" x="0" y="0" width="21" height="3"></rect>
                <path d="M10,7 L10,6 L11,6 L11,7 L12,7 L12,8 L11,8 L11,9 L10,9 L10,8 L9,8 L9,7 L10,7 Z M7,6 L8,7 L8,8 L7,9 L9,9 L10,10 L10,11 L11,11 L11,10 L12,9 L14,9 L13,8 L13,7 L14,6 L12,6 L11,5 L11,4 L10.0316162,4 L10,4 L10,5 L9,6 L7,6 Z" id="Path-54" fill="#4166C1" sketch:type="MSShapeGroup" mask="url(#mask-3)"></path>
                <mask id="mask-5" sketch:name="overlay" fill="white">
                    <use xlink:href="#path-4"></use>
                </mask>
                <use id="overlay" stroke-opacity="0.156646286" stroke="#2F343A" sketch:type="MSShapeGroup" xlink:href="#path-4"></use>
            </g>
        </g>
    </g>
</svg>