<?xml version="1.0" encoding="UTF-8" standalone="no"?>
<svg width="21px" height="15px" viewBox="0 0 21 15" version="1.1" xmlns="http://www.w3.org/2000/svg" xmlns:xlink="http://www.w3.org/1999/xlink" xmlns:sketch="http://www.bohemiancoding.com/sketch/ns">
    <!-- Generator: Sketch 3.4.2 (15855) - http://www.bohemiancoding.com/sketch -->
    <title>NO</title>
    <desc>Created with Sketch.</desc>
    <defs>
        <rect id="path-1" x="0" y="0" width="21" height="15" rx="2"></rect>
        <rect id="path-3" x="0.5" y="0.5" width="20" height="14" rx="1"></rect>
    </defs>
    <g id=":)" stroke="none" stroke-width="1" fill="none" fill-rule="evenodd" sketch:type="MSPage">
        <g id="Flags-by-@lucchaissac" sketch:type="MSArtboardGroup" transform="translate(-50.000000, -205.000000)">
            <g id="NO" sketch:type="MSLayerGroup" transform="translate(50.000000, 205.000000)">
                <mask id="mask-2" sketch:name="background" fill="white">
                    <use xlink:href="#path-1"></use>
                </mask>
                <use id="background" fill="#ED3A40" sketch:type="MSShapeGroup" xlink:href="#path-1"></use>
                <path d="M6,0 L9,0 L9,6 L21,6 L21,9 L9,9 L9,15 L6,15 L6,9 L0,9 L0,6 L6,6 L6,0 Z" id="cross" fill="#FFFFFF" sketch:type="MSShapeGroup" mask="url(#mask-2)"></path>
                <path d="M7,8 L0,8 L0,7 L7,7 L7,0 L8,0 L8,7 L21,7 L21,8 L8,8 L8,15 L7,15 L7,8 L7,8 Z" id="Rectangle-307" fill="#0554A1" sketch:type="MSShapeGroup" mask="url(#mask-2)"></path>
                <mask id="mask-4" sketch:name="overlay" fill="white">
                    <use xlink:href="#path-3"></use>
                </mask>
                <use id="overlay" stroke-opacity="0.156646286" stroke="#2F343A" sketch:type="MSShapeGroup" xlink:href="#path-3"></use>
            </g>
        </g>
    </g>
</svg>