<?xml version="1.0" encoding="UTF-8" standalone="no"?>
<svg width="21px" height="15px" viewBox="0 0 21 15" version="1.1" xmlns="http://www.w3.org/2000/svg" xmlns:xlink="http://www.w3.org/1999/xlink" xmlns:sketch="http://www.bohemiancoding.com/sketch/ns">
    <!-- Generator: Sketch 3.4.2 (15855) - http://www.bohemiancoding.com/sketch -->
    <title>PK</title>
    <desc>Created with Sketch.</desc>
    <defs>
        <rect id="path-1" x="0" y="0" width="21" height="15" rx="2"></rect>
        <rect id="path-3" x="0.5" y="0.5" width="20" height="14" rx="1"></rect>
    </defs>
    <g id=":)" stroke="none" stroke-width="1" fill="none" fill-rule="evenodd" sketch:type="MSPage">
        <g id="Flags-by-@lucchaissac" sketch:type="MSArtboardGroup" transform="translate(-205.000000, -205.000000)">
            <g id="PK" sketch:type="MSLayerGroup" transform="translate(205.000000, 205.000000)">
                <mask id="mask-2" sketch:name="background" fill="white">
                    <use xlink:href="#path-1"></use>
                </mask>
                <use id="background" fill="#FFFFFF" sketch:type="MSShapeGroup" xlink:href="#path-1"></use>
                <rect id="left" fill="#32733C" sketch:type="MSShapeGroup" mask="url(#mask-2)" x="6" y="0" width="15" height="15"></rect>
                <path d="M17.9656016,8.0591468 C17.6902862,10.2805702 15.7959403,12 13.5,12 C11.0147186,12 9,9.98528137 9,7.5 C9,5.52908616 10.267064,3.85411098 12.0310561,3.24521033 C11.3920942,3.96251766 11,4.93241696 11,6 C11,8.209139 12.6789322,10 14.75,10 C16.1150151,10 17.3096879,9.22205633 17.9656016,8.0591468 Z" id="circle" fill="#EFF1F0" sketch:type="MSShapeGroup" mask="url(#mask-2)"></path>
                <path d="M16,3 L16,4 L17,4 L17,3 L16,3 L16,3 Z M16,5 L16,6 L17,6 L17,5 L16,5 L16,5 Z M17,4 L17,5 L18,5 L18,4 L17,4 L17,4 Z M15,4 L15,5 L16,5 L16,4 L15,4 L15,4 Z" id="star" stroke="#A7BCAB" sketch:type="MSShapeGroup" mask="url(#mask-2)"></path>
                <rect id="star" fill="#FFFFFF" sketch:type="MSShapeGroup" mask="url(#mask-2)" x="16" y="4" width="1" height="1"></rect>
                <mask id="mask-4" sketch:name="overlay" fill="white">
                    <use xlink:href="#path-3"></use>
                </mask>
                <use id="overlay" stroke-opacity="0.156646286" stroke="#2F343A" sketch:type="MSShapeGroup" xlink:href="#path-3"></use>
            </g>
        </g>
    </g>
</svg>