<?xml version="1.0" encoding="UTF-8" standalone="no"?>
<svg width="21px" height="15px" viewBox="0 0 21 15" version="1.1" xmlns="http://www.w3.org/2000/svg" xmlns:xlink="http://www.w3.org/1999/xlink" xmlns:sketch="http://www.bohemiancoding.com/sketch/ns">
    <!-- Generator: Sketch 3.4.2 (15855) - http://www.bohemiancoding.com/sketch -->
    <title>SG</title>
    <desc>Created with Sketch.</desc>
    <defs>
        <rect id="path-1" x="0" y="0" width="21" height="15" rx="2"></rect>
        <rect id="path-3" x="0.5" y="0.5" width="20" height="14" rx="1"></rect>
    </defs>
    <g id=":)" stroke="none" stroke-width="1" fill="none" fill-rule="evenodd" sketch:type="MSPage">
        <g id="Flags-by-@lucchaissac" sketch:type="MSArtboardGroup" transform="translate(-205.000000, -230.000000)">
            <g id="SG" sketch:type="MSLayerGroup" transform="translate(205.000000, 230.000000)">
                <mask id="mask-2" sketch:name="background" fill="white">
                    <use xlink:href="#path-1"></use>
                </mask>
                <use id="background" fill="#FFFFFF" sketch:type="MSShapeGroup" xlink:href="#path-1"></use>
                <rect id="Rectangle-366" fill="#ED3A40" sketch:type="MSShapeGroup" mask="url(#mask-2)" x="0" y="0" width="21" height="8"></rect>
                <path d="M5,5.73243561 C4.70582663,5.90260571 4.36428714,6 4,6 C2.8954305,6 2,5.1045695 2,4 C2,2.8954305 2.8954305,2 4,2 C4.36428714,2 4.70582663,2.09739429 5,2.26756439 C4.40219863,2.61337381 4,3.25971764 4,4 C4,4.74028236 4.40219863,5.38662619 5,5.73243561 Z" id="Oval-28" fill="#FFFFFF" sketch:type="MSShapeGroup" mask="url(#mask-2)"></path>
                <path d="M7,2 L7,3 L8,3 L8,2 L7,2 Z M6,4 L6,5 L7,5 L7,4 L6,4 Z M8,5 L8,6 L9,6 L9,5 L8,5 Z M9,3 L9,4 L10,4 L10,3 L9,3 Z" id="circle" fill="#FFFFFF" sketch:type="MSShapeGroup" mask="url(#mask-2)"></path>
                <mask id="mask-4" sketch:name="overlay" fill="white">
                    <use xlink:href="#path-3"></use>
                </mask>
                <use id="overlay" stroke-opacity="0.156646286" stroke="#2F343A" sketch:type="MSShapeGroup" xlink:href="#path-3"></use>
            </g>
        </g>
    </g>
</svg>