<?xml version="1.0" encoding="UTF-8" standalone="no"?>
<svg width="21px" height="15px" viewBox="0 0 21 15" version="1.1" xmlns="http://www.w3.org/2000/svg" xmlns:xlink="http://www.w3.org/1999/xlink" xmlns:sketch="http://www.bohemiancoding.com/sketch/ns">
    <!-- Generator: Sketch 3.4.2 (15855) - http://www.bohemiancoding.com/sketch -->
    <title>TL</title>
    <desc>Created with Sketch.</desc>
    <defs>
        <filter x="-50%" y="-50%" width="200%" height="200%" filterUnits="objectBoundingBox" id="filter-1">
            <feMorphology radius="1" in="SourceAlpha" operator="dilate" result="shadowSpreadInner1"></feMorphology>
            <feOffset dx="0" dy="0" in="shadowSpreadInner1" result="shadowOffsetInner1"></feOffset>
            <feGaussianBlur stdDeviation="0" in="shadowOffsetInner1" result="shadowBlurInner1"></feGaussianBlur>
            <feComposite in="shadowBlurInner1" in2="SourceAlpha" operator="arithmetic" k2="-1" k3="1" result="shadowInnerInner1"></feComposite>
            <feColorMatrix values="0 0 0 0 0   0 0 0 0 0   0 0 0 0 0  0 0 0 0.0851619112 0" in="shadowInnerInner1" type="matrix" result="shadowMatrixInner1"></feColorMatrix>
            <feMerge>
                <feMergeNode in="SourceGraphic"></feMergeNode>
                <feMergeNode in="shadowMatrixInner1"></feMergeNode>
            </feMerge>
        </filter>
        <rect id="path-2" x="0" y="0" width="21" height="15" rx="2"></rect>
        <rect id="path-4" x="0.5" y="0.5" width="20" height="14" rx="1"></rect>
    </defs>
    <g id=":)" stroke="none" stroke-width="1" fill="none" fill-rule="evenodd" sketch:type="MSPage">
        <g id="Flags-by-@lucchaissac" sketch:type="MSArtboardGroup" transform="translate(-112.000000, -255.000000)">
            <g id="TL" sketch:type="MSLayerGroup" transform="translate(112.000000, 255.000000)">
                <mask id="mask-3" sketch:name="background" fill="white">
                    <use xlink:href="#path-2"></use>
                </mask>
                <use id="background" fill="#D23144" filter="url(#filter-1)" sketch:type="MSShapeGroup" xlink:href="#path-2"></use>
                <path d="M15,7.5 L1.77635684e-15,-1.77635684e-15 L3.55271368e-15,15 L15,7.5 L15,7.5 Z" id="triangle" fill="#FBD240" sketch:type="MSShapeGroup" mask="url(#mask-3)"></path>
                <path d="M9,7.5 L1.77635684e-15,0 L3.55271368e-15,15 L9,7.5 L9,7.5 Z" id="triangle" fill="#292929" sketch:type="MSShapeGroup" mask="url(#mask-3)"></path>
                <mask id="mask-5" sketch:name="overlay" fill="white">
                    <use xlink:href="#path-4"></use>
                </mask>
                <use id="overlay" stroke-opacity="0.156646286" stroke="#2F343A" sketch:type="MSShapeGroup" xlink:href="#path-4"></use>
                <path d="M3,6 L3,7 L4,7 L4,6 L3,6 L3,6 Z M3,8 L3,9 L4,9 L4,8 L3,8 L3,8 Z M4,7 L4,8 L5,8 L5,7 L4,7 L4,7 Z M2,7 L2,8 L3,8 L3,7 L2,7 L2,7 Z" id="star-2" fill="#A6A6A6" sketch:type="MSShapeGroup" mask="url(#mask-5)"></path>
                <rect id="star-2" fill="#FFFFFF" sketch:type="MSShapeGroup" mask="url(#mask-5)" x="3" y="7" width="1" height="1"></rect>
            </g>
        </g>
    </g>
</svg>