<?xml version="1.0" encoding="UTF-8" standalone="no"?>
<svg width="21px" height="15px" viewBox="0 0 21 15" version="1.1" xmlns="http://www.w3.org/2000/svg" xmlns:xlink="http://www.w3.org/1999/xlink" xmlns:sketch="http://www.bohemiancoding.com/sketch/ns">
    <!-- Generator: Sketch 3.4.2 (15855) - http://www.bohemiancoding.com/sketch -->
    <title>TR</title>
    <desc>Created with Sketch.</desc>
    <defs>
        <rect id="path-1" x="0" y="0" width="21" height="15" rx="2"></rect>
        <rect id="path-3" x="0.5" y="0.5" width="20" height="14" rx="1"></rect>
    </defs>
    <g id=":)" stroke="none" stroke-width="1" fill="none" fill-rule="evenodd" sketch:type="MSPage">
        <g id="Flags-by-@lucchaissac" sketch:type="MSArtboardGroup" transform="translate(-143.000000, -255.000000)">
            <g id="TR" sketch:type="MSLayerGroup" transform="translate(143.000000, 255.000000)">
                <mask id="mask-2" sketch:name="background" fill="white">
                    <use xlink:href="#path-1"></use>
                </mask>
                <use id="background" fill="#E82E2E" sketch:type="MSShapeGroup" xlink:href="#path-1"></use>
                <path d="M12.052071,10.2630856 C11.228638,11.3201293 9.94371516,12 8.5,12 C6.01471863,12 4,9.98528137 4,7.5 C4,5.01471863 6.01471863,3 8.5,3 C9.94371516,3 11.228638,3.67987067 12.052071,4.73691441 C11.4166497,4.27508353 10.6177441,4 9.75,4 C7.67893219,4 6,5.56700338 6,7.5 C6,9.43299662 7.67893219,11 9.75,11 C10.6177441,11 11.4166497,10.7249165 12.052071,10.2630856 Z" id="circle" fill="#FFFFFF" sketch:type="MSShapeGroup" mask="url(#mask-2)"></path>
                <path d="M13,6 L13,7 L14,7 L14,6 L13,6 L13,6 Z M13,8 L13,9 L14,9 L14,8 L13,8 L13,8 Z M14,7 L14,8 L15,8 L15,7 L14,7 L14,7 Z M12,7 L12,8 L13,8 L13,7 L12,7 L12,7 Z" id="star" stroke="#E6B6B7" sketch:type="MSShapeGroup" mask="url(#mask-2)"></path>
                <rect id="star" fill="#FFFFFF" sketch:type="MSShapeGroup" mask="url(#mask-2)" x="13" y="7" width="1" height="1"></rect>
                <mask id="mask-4" sketch:name="overlay" fill="white">
                    <use xlink:href="#path-3"></use>
                </mask>
                <use id="overlay" stroke-opacity="0.156646286" stroke="#2F343A" sketch:type="MSShapeGroup" xlink:href="#path-3"></use>
            </g>
        </g>
    </g>
</svg>